<svg xmlns="http://www.w3.org/2000/svg" width="124" height="19" fill="none"><path fill="#D29C7D" d="M0 18.7V.3h3.87v7.38h8.58V.28h3.87v18.43h-3.87V11.2H3.87v7.53H0zM46.74 9.5c0 1.32-.26 2.56-.77 3.74-.52 1.15-1.22 2.16-2.1 3.02-.88.85-1.92 1.5-3.13 2-1.2.5-2.5.74-3.9.74-1.36 0-2.65-.25-3.85-.74-1.22-.5-2.27-1.15-3.16-2-.87-.86-1.56-1.87-2.08-3.02-.52-1.18-.77-2.42-.77-3.74 0-1.32.24-2.55.76-3.7.52-1.2 1.2-2.2 2.08-3.04.9-.86 1.94-1.53 3.15-2.02C34.2.24 35.47 0 36.84 0c1.4 0 2.68.25 3.9.74 1.2.5 2.24 1.16 3.1 2.02.9.85 1.6 1.85 2.12 3.03.5 1.15.77 2.38.77 3.7zm-3.97 0c0-.86-.15-1.65-.45-2.37-.3-.74-.72-1.37-1.26-1.9-.5-.54-1.13-.96-1.86-1.26-.73-.3-1.5-.47-2.35-.47-.83 0-1.62.16-2.35.47-.7.3-1.33.72-1.86 1.27-.52.52-.93 1.15-1.23 1.9-.3.7-.44 1.5-.44 2.36 0 .84.15 1.63.45 2.37.3.74.72 1.38 1.24 1.92.53.52 1.15.94 1.86 1.25.73.3 1.52.45 2.35.45.84 0 1.62-.15 2.35-.45.73-.3 1.35-.73 1.86-1.26.54-.55.95-1.2 1.26-1.93.3-.74.45-1.53.45-2.37zM73.63 10.74c0 1.24-.2 2.38-.6 3.42-.38 1.02-.94 1.88-1.67 2.6-.7.7-1.58 1.25-2.6 1.63-1.02.38-2.15.57-3.4.57-1.26 0-2.4-.2-3.44-.58-1-.4-1.87-.94-2.58-1.64-.7-.72-1.26-1.58-1.66-2.6-.4-1.02-.58-2.16-.58-3.42V.3h3.86v10.44c0 1.42.4 2.56 1.2 3.42.82.86 1.9 1.3 3.23 1.3 1.32 0 2.38-.44 3.16-1.3.8-.86 1.2-2 1.2-3.42V.3h3.87v10.44zM83.1 15.8l2.22-2.75c1.1.93 2.12 1.62 3.12 2.06 1 .43 2.08.64 3.2.64 1.15 0 2.08-.2 2.77-.63.7-.42 1.05-.98 1.05-1.68 0-.63-.24-1.12-.72-1.47-.46-.35-1.24-.62-2.34-.8l-3.72-.62c-1.6-.27-2.82-.82-3.65-1.66-.82-.84-1.23-1.93-1.23-3.26 0-1.7.66-3.07 1.97-4.07 1.34-1 3.13-1.5 5.4-1.5 1.34 0 2.7.22 4.07.68 1.38.47 2.6 1.1 3.62 1.9l-2.08 2.85c-1-.76-1.97-1.3-2.93-1.66-.96-.38-1.94-.56-2.96-.56-1.04 0-1.86.2-2.5.58-.6.36-.92.86-.92 1.5 0 .56.2 1 .6 1.3.42.33 1.1.56 2.07.7l3.52.57c1.84.3 3.23.88 4.15 1.76.95.86 1.42 2 1.42 3.42 0 1.8-.72 3.22-2.16 4.3-1.42 1.06-3.33 1.6-5.7 1.6-1.5 0-2.98-.3-4.43-.85-1.44-.56-2.72-1.34-3.84-2.34zM109.55 18.7V.3h14.34v3.3H113.4v4.22h6.9v3.2h-6.9v4.37H124v3.3h-14.45z"/></svg>