<svg xmlns="http://www.w3.org/2000/svg" xmlns:xlink="http://www.w3.org/1999/xlink" width="518.026" height="542" viewBox="0 0 518.026 542">
  <defs>
    <clipPath id="clip-path">
      <rect id="Rect치ngulo_76" data-name="Rect치ngulo 76" width="518.026" height="349.52" fill="#e0d6c5"/>
    </clipPath>
  </defs>
  <g id="Grupo_571" data-name="Grupo 571" transform="translate(-701 -279)">
    <text id="The_quality_of_American-made._The_price_of_imports." data-name="The quality of American-made. The price of imports." transform="translate(730 723)" fill="#fff" font-size="30" font-family="Helvetica"><tspan x="27.063" y="23">The quality of American-made. </tspan><tspan x="93.786" y="59">The price of imports.</tspan></text>
    <g id="Grupo_550" data-name="Grupo 550" transform="translate(701 279)">
      <g id="Grupo_549" data-name="Grupo 549" clip-path="url(#clip-path)">
        <path id="Trazado_245" data-name="Trazado 245" d="M300.2,125.8l-36.458,21.527a4.714,4.714,0,0,1-4.773.01l-34.808-20.352a4.708,4.708,0,0,1-2.333-4.066V65.608a4.711,4.711,0,0,1,2.333-4.066l34.809-20.357a4.71,4.71,0,0,1,4.772.009l36.248,21.4a1.782,1.782,0,0,0,1.807,0l9.316-5.461a1.782,1.782,0,0,0,0-3.074L264.652,26.828a6.487,6.487,0,0,0-6.588.015l-47.3,28.015a6.491,6.491,0,0,0-3.182,5.583v67.648a6.488,6.488,0,0,0,3.182,5.582l47.3,28.012a6.49,6.49,0,0,0,6.587.015l47.073-27.59a1.368,1.368,0,0,0,0-2.36L301.582,125.8a1.367,1.367,0,0,0-1.387,0" fill="#e0d6c5"/>
        <path id="Trazado_246" data-name="Trazado 246" d="M321.367,139.3l-56.605,33.99a4.57,4.57,0,0,1-4.714,0L200.658,137.5a4.575,4.575,0,0,1-2.213-3.917v-79.7a4.57,4.57,0,0,1,2.229-3.926l58.142-34.721a4.572,4.572,0,0,1,4.669-.012l58.336,34.428a1.8,1.8,0,0,0,1.827,0l9.279-5.438a1.8,1.8,0,0,0,0-3.108L264.459.895a6.492,6.492,0,0,0-6.612.021l-70.47,41.992a6.493,6.493,0,0,0-3.169,5.577v90.178a6.493,6.493,0,0,0,3.134,5.556l71.728,43.368a6.491,6.491,0,0,0,6.682.022l67.064-39.944a1.534,1.534,0,0,0-.015-2.644l-9.875-5.729a1.533,1.533,0,0,0-1.559.012" fill="#e0d6c5"/>
        <path id="Trazado_247" data-name="Trazado 247" d="M233.506,121.463l8.417,4.936a1.276,1.276,0,0,0,1.921-1.1V63.227a1.275,1.275,0,0,0-1.921-1.1l-8.417,4.935a3.58,3.58,0,0,0-1.769,3.088v48.225a3.58,3.58,0,0,0,1.769,3.088" fill="#e0d6c5"/>
        <path id="Trazado_248" data-name="Trazado 248" d="M25.512,284.565a24.985,24.985,0,0,1-23.568-15.65A26.185,26.185,0,0,1,0,258.839V258.7a26.322,26.322,0,0,1,1.908-10.04,25.169,25.169,0,0,1,13.528-13.792,26.042,26.042,0,0,1,10.434-2.036,31.666,31.666,0,0,1,6.253.571,25.482,25.482,0,0,1,5.181,1.609,24.307,24.307,0,0,1,4.359,2.464,34.263,34.263,0,0,1,3.787,3.144l-5.645,6.5a28.173,28.173,0,0,0-6.361-4.5A16.562,16.562,0,0,0,25.8,240.9a15.645,15.645,0,0,0-6.61,1.4,16.372,16.372,0,0,0-5.252,3.786,17.011,17.011,0,0,0-3.431,5.61,19.255,19.255,0,0,0-1.215,6.861v.142a19.54,19.54,0,0,0,1.215,6.9,17.316,17.316,0,0,0,3.431,5.681,16.093,16.093,0,0,0,5.252,3.823,15.644,15.644,0,0,0,6.61,1.393,16.5,16.5,0,0,0,7.862-1.75,30.964,30.964,0,0,0,6.5-4.751l5.645,5.716a32.136,32.136,0,0,1-4.038,3.68,26.517,26.517,0,0,1-4.538,2.787,22.89,22.89,0,0,1-5.324,1.787,31.187,31.187,0,0,1-6.4.607" fill="#e0d6c5"/>
        <path id="Trazado_249" data-name="Trazado 249" d="M71.891,284.565a20.464,20.464,0,0,1-7.967-1.537,19.781,19.781,0,0,1-6.361-4.18,18.93,18.93,0,0,1-4.181-6.217,19.374,19.374,0,0,1-1.5-7.575v-.144a19.119,19.119,0,0,1,1.536-7.646,19.676,19.676,0,0,1,10.577-10.5,20.261,20.261,0,0,1,8.039-1.573,20.67,20.67,0,0,1,8.039,1.537,19.346,19.346,0,0,1,10.541,10.433,19.265,19.265,0,0,1,1.5,7.612v.142a18.967,18.967,0,0,1-1.538,7.577,19.6,19.6,0,0,1-10.611,10.5,20.51,20.51,0,0,1-8.076,1.573m.143-7.5a11.174,11.174,0,0,0,4.723-.965,10.968,10.968,0,0,0,3.585-2.609,11.279,11.279,0,0,0,2.273-3.823,13.6,13.6,0,0,0,.781-4.609v-.144a13.057,13.057,0,0,0-.851-4.715,11.833,11.833,0,0,0-2.381-3.86,11.344,11.344,0,0,0-3.621-2.607,11.7,11.7,0,0,0-9.3,0,11.193,11.193,0,0,0-3.586,2.571,10.847,10.847,0,0,0-2.271,3.824,13.868,13.868,0,0,0-.782,4.645v.142a12.746,12.746,0,0,0,.851,4.682,12.387,12.387,0,0,0,2.379,3.858,11.132,11.132,0,0,0,3.623,2.645,10.82,10.82,0,0,0,4.581.965" fill="#e0d6c5"/>
        <path id="Trazado_250" data-name="Trazado 250" d="M100.9,245.975h8.719v8.5a16.615,16.615,0,0,1,5.073-6.861,12.162,12.162,0,0,1,8.29-2.358v9.147h-.5a14.132,14.132,0,0,0-5.217.929,10.941,10.941,0,0,0-4.073,2.787,12.6,12.6,0,0,0-2.644,4.681,20.914,20.914,0,0,0-.929,6.539v14.364H100.9Z" fill="#e0d6c5"/>
        <path id="Trazado_251" data-name="Trazado 251" d="M147.713,284.564a20.137,20.137,0,0,1-7.611-1.428,18.255,18.255,0,0,1-10.255-10.184,20.54,20.54,0,0,1-1.5-7.968v-.144a21.313,21.313,0,0,1,1.359-7.646,19.207,19.207,0,0,1,3.822-6.252,17.993,17.993,0,0,1,5.824-4.217,17.663,17.663,0,0,1,7.433-1.537,17.916,17.916,0,0,1,7.9,1.645,16.258,16.258,0,0,1,5.646,4.431,19.277,19.277,0,0,1,3.394,6.467,26.022,26.022,0,0,1,1.143,7.753c0,.382-.011.775-.036,1.179s-.06.823-.106,1.25H136.993a11.013,11.013,0,0,0,3.681,7.111,10.86,10.86,0,0,0,7.182,2.466,12.647,12.647,0,0,0,5.573-1.143,18.068,18.068,0,0,0,4.645-3.359l5.075,4.5a20.882,20.882,0,0,1-6.467,5.145,19.4,19.4,0,0,1-8.969,1.929m8.575-22.367a14.8,14.8,0,0,0-.929-3.894,9.991,9.991,0,0,0-1.93-3.145,9.161,9.161,0,0,0-2.893-2.108,8.92,8.92,0,0,0-3.824-.787,8.72,8.72,0,0,0-6.61,2.751,12.422,12.422,0,0,0-3.18,7.183Z" fill="#e0d6c5"/>
        <path id="Trazado_252" data-name="Trazado 252" d="M197.879,284.565a24.985,24.985,0,0,1-23.568-15.65,26.185,26.185,0,0,1-1.944-10.076V258.7a26.322,26.322,0,0,1,1.908-10.04A25.169,25.169,0,0,1,187.8,234.863a26.042,26.042,0,0,1,10.434-2.036,31.666,31.666,0,0,1,6.253.571,25.483,25.483,0,0,1,5.181,1.609,24.307,24.307,0,0,1,4.359,2.464,34.262,34.262,0,0,1,3.787,3.144l-5.645,6.5a28.173,28.173,0,0,0-6.361-4.5,16.562,16.562,0,0,0-7.646-1.716,15.645,15.645,0,0,0-6.61,1.4,16.373,16.373,0,0,0-5.252,3.786,17.012,17.012,0,0,0-3.431,5.61,19.255,19.255,0,0,0-1.215,6.861v.142a19.54,19.54,0,0,0,1.215,6.9,17.317,17.317,0,0,0,3.431,5.681,16.093,16.093,0,0,0,5.252,3.823,15.644,15.644,0,0,0,6.61,1.393,16.5,16.5,0,0,0,7.862-1.75,30.964,30.964,0,0,0,6.5-4.751l5.644,5.716a32.058,32.058,0,0,1-4.037,3.68,26.517,26.517,0,0,1-4.538,2.787,22.89,22.89,0,0,1-5.324,1.787,31.187,31.187,0,0,1-6.4.607" fill="#e0d6c5"/>
        <path id="Trazado_253" data-name="Trazado 253" d="M249.4,283.707v-4.645a16.164,16.164,0,0,1-4.931,3.86,15.567,15.567,0,0,1-7.289,1.57,17.378,17.378,0,0,1-5.145-.749,12.644,12.644,0,0,1-4.251-2.216,10.761,10.761,0,0,1-4.038-8.683V272.7a12.232,12.232,0,0,1,1.143-5.467,10.685,10.685,0,0,1,3.18-3.86,13.887,13.887,0,0,1,4.86-2.285,23.637,23.637,0,0,1,6.109-.751,33.676,33.676,0,0,1,5.825.429,35.552,35.552,0,0,1,4.609,1.143V261.2a7.507,7.507,0,0,0-2.394-6q-2.4-2.073-6.9-2.072a23.119,23.119,0,0,0-5.716.641,37.561,37.561,0,0,0-5.075,1.716l-2.357-6.932a39.839,39.839,0,0,1,6.431-2.286,31.786,31.786,0,0,1,7.932-.858q8.433,0,12.507,4.18t4.072,11.756v22.368Zm.215-15.794a22.263,22.263,0,0,0-3.9-1.071,25.356,25.356,0,0,0-4.752-.43,11.119,11.119,0,0,0-6.361,1.573,4.937,4.937,0,0,0-2.285,4.288v.143a4.692,4.692,0,0,0,2.107,4.144,9.007,9.007,0,0,0,5.181,1.431,13.162,13.162,0,0,0,3.966-.574,10.256,10.256,0,0,0,3.181-1.606,7.326,7.326,0,0,0,2.108-2.5,7.027,7.027,0,0,0,.75-3.252Z" fill="#e0d6c5"/>
        <path id="Trazado_254" data-name="Trazado 254" d="M289.749,284.493a13.819,13.819,0,0,1-7.7-2,19.8,19.8,0,0,1-5.062-4.645v5.86h-8.719V231.54h8.719l-.072,20.723a18.833,18.833,0,0,1,5.145-5.037,13.552,13.552,0,0,1,7.648-2.038,17.028,17.028,0,0,1,6.5,1.287,16.7,16.7,0,0,1,5.61,3.788,18.879,18.879,0,0,1,3.966,6.146,21.8,21.8,0,0,1,1.5,8.361v.142a22.362,22.362,0,0,1-1.461,8.362,18.424,18.424,0,0,1-3.922,6.146,16.571,16.571,0,0,1-5.631,3.788,17.221,17.221,0,0,1-6.523,1.285m-1.971-7.5a10.353,10.353,0,0,0,4.18-.857,10.472,10.472,0,0,0,3.43-2.4,11.132,11.132,0,0,0,2.322-3.786,14.033,14.033,0,0,0,.859-5.039v-.142a13.82,13.82,0,0,0-.859-4.967,11.58,11.58,0,0,0-2.322-3.824,10.3,10.3,0,0,0-7.61-3.286,10.577,10.577,0,0,0-4.216.857,10.282,10.282,0,0,0-3.5,2.465,12.259,12.259,0,0,0-2.394,3.824,13.062,13.062,0,0,0-.893,4.931v.142a13.34,13.34,0,0,0,.893,4.967,11.708,11.708,0,0,0,2.394,3.824,10.619,10.619,0,0,0,7.718,3.287" fill="#e0d6c5"/>
        <path id="Trazado_255" data-name="Trazado 255" d="M316.291,231.968h9.361v8.219h-9.361Zm.358,14.007h8.717v37.732h-8.717Z" fill="#e0d6c5"/>
        <path id="Trazado_256" data-name="Trazado 256" d="M336.585,245.975H345.3v5.92a21.243,21.243,0,0,1,2.031-2.56,13.275,13.275,0,0,1,2.565-2.127,13.1,13.1,0,0,1,3.207-1.478,13.333,13.333,0,0,1,3.955-.542q6.414,0,9.906,3.932t3.491,10.575v24.012H361.74V262.319q0-4.42-2.09-6.81a7.441,7.441,0,0,0-5.916-2.387,8.021,8.021,0,0,0-6.092,2.459,9.587,9.587,0,0,0-2.338,6.879v21.247h-8.719Z" fill="#e0d6c5"/>
        <path id="Trazado_257" data-name="Trazado 257" d="M398.187,284.564a20.137,20.137,0,0,1-7.611-1.428,18.255,18.255,0,0,1-10.255-10.184,20.54,20.54,0,0,1-1.5-7.968v-.144a21.313,21.313,0,0,1,1.359-7.646A19.208,19.208,0,0,1,384,250.942a17.993,17.993,0,0,1,5.824-4.217,17.663,17.663,0,0,1,7.433-1.537,17.916,17.916,0,0,1,7.9,1.645,16.258,16.258,0,0,1,5.646,4.431,19.277,19.277,0,0,1,3.394,6.467,26.022,26.022,0,0,1,1.143,7.753c0,.382-.011.775-.036,1.179s-.06.823-.106,1.25H387.467a11.013,11.013,0,0,0,3.681,7.111,10.86,10.86,0,0,0,7.182,2.466,12.647,12.647,0,0,0,5.573-1.143,18.068,18.068,0,0,0,4.645-3.359l5.075,4.5a20.882,20.882,0,0,1-6.467,5.145,19.4,19.4,0,0,1-8.969,1.929m8.575-22.367a14.8,14.8,0,0,0-.929-3.894,9.991,9.991,0,0,0-1.93-3.145,9.162,9.162,0,0,0-2.893-2.108,8.92,8.92,0,0,0-3.824-.787,8.72,8.72,0,0,0-6.61,2.751,12.422,12.422,0,0,0-3.18,7.183Z" fill="#e0d6c5"/>
        <path id="Trazado_258" data-name="Trazado 258" d="M436.776,284.351a16.054,16.054,0,0,1-4.378-.571,8.955,8.955,0,0,1-3.494-1.859,8.228,8.228,0,0,1-2.269-3.394,15.026,15.026,0,0,1-.792-5.253V253.408h-4.789v-7.432h4.789V235.614h8.717v10.362h10.148v7.432H434.56v18.508a4.681,4.681,0,0,0,1.215,3.61,4.912,4.912,0,0,0,3.431,1.107,11.851,11.851,0,0,0,5.36-1.287v7.075a14.986,14.986,0,0,1-3.5,1.43,16.633,16.633,0,0,1-4.288.5" fill="#e0d6c5"/>
        <path id="Trazado_259" data-name="Trazado 259" d="M453.353,245.975h8.719v8.5a16.615,16.615,0,0,1,5.073-6.861,12.162,12.162,0,0,1,8.29-2.358v9.147h-.5a14.132,14.132,0,0,0-5.217.929,10.942,10.942,0,0,0-4.073,2.787A12.6,12.6,0,0,0,463,262.8a20.914,20.914,0,0,0-.929,6.539v14.364h-8.719Z" fill="#e0d6c5"/>
        <path id="Trazado_260" data-name="Trazado 260" d="M490.584,295.356a17.435,17.435,0,0,1-4.823-.607,21.031,21.031,0,0,1-4.11-1.679l2.931-6.433a14.714,14.714,0,0,0,2.465,1.037,8.676,8.676,0,0,0,2.608.393,4.915,4.915,0,0,0,3.073-.929,8.524,8.524,0,0,0,2.287-3.43l-15.722-37.732h9.219l10.719,28.013,9.79-28.013h9.005l-15.007,38.8a31.954,31.954,0,0,1-2.359,4.93,12.89,12.89,0,0,1-2.715,3.252,9.786,9.786,0,0,1-3.287,1.823,13.4,13.4,0,0,1-4.074.571" fill="#e0d6c5"/>
        <path id="Trazado_261" data-name="Trazado 261" d="M47.211,344.044a4.962,4.962,0,0,0,.5,1.907,3.731,3.731,0,0,0,1.053,1.275,4.152,4.152,0,0,0,1.487.715,6.992,6.992,0,0,0,1.8.223A6.009,6.009,0,0,0,54,347.883a3.683,3.683,0,0,0,1.334-.761,2.971,2.971,0,0,0,.761-1.112,3.644,3.644,0,0,0,.246-1.334,2.644,2.644,0,0,0-.444-1.592,3.429,3.429,0,0,0-1.16-.994,7.008,7.008,0,0,0-1.638-.621c-.616-.157-1.248-.308-1.9-.457s-1.28-.323-1.9-.526a5.975,5.975,0,0,1-1.639-.819,3.944,3.944,0,0,1-1.158-1.323,4.219,4.219,0,0,1-.445-2.048,4.124,4.124,0,0,1,.363-1.686,4.18,4.18,0,0,1,1.077-1.45,5.26,5.26,0,0,1,1.79-1.008,7.561,7.561,0,0,1,2.481-.373,7.153,7.153,0,0,1,2.494.4,4.973,4.973,0,0,1,1.767,1.089,4.485,4.485,0,0,1,1.053,1.6,5.342,5.342,0,0,1,.351,1.943H55.919a3.786,3.786,0,0,0-.34-1.662A3.1,3.1,0,0,0,54.655,334a3.932,3.932,0,0,0-1.334-.656,5.7,5.7,0,0,0-1.546-.211,5.457,5.457,0,0,0-2.048.34,3.615,3.615,0,0,0-1.322.878,2.964,2.964,0,0,0-.679,1.194,2.871,2.871,0,0,0-.07,1.311,2.289,2.289,0,0,0,.655,1.31,4.138,4.138,0,0,0,1.264.808,9.536,9.536,0,0,0,1.65.514q.9.2,1.838.421t1.814.528a5.6,5.6,0,0,1,1.557.819,3.771,3.771,0,0,1,1.088,1.323,4.451,4.451,0,0,1,.41,2.025,4.374,4.374,0,0,1-1.615,3.628,7.128,7.128,0,0,1-4.542,1.286,8.4,8.4,0,0,1-2.434-.338,5.382,5.382,0,0,1-1.942-1.03,4.716,4.716,0,0,1-1.276-1.709,5.815,5.815,0,0,1-.457-2.4Z" fill="#e0d6c5"/>
        <path id="Trazado_262" data-name="Trazado 262" d="M70.22,349.076V332.222H81.432v1.359h-9.62v6.085H80.5v1.357H71.812v6.7h9.855v1.357Z" fill="#e0d6c5"/>
        <path id="Trazado_263" data-name="Trazado 263" d="M95.453,341.422v7.654l-1.591-.023v-16.83h6.6a7.349,7.349,0,0,1,4.26,1.041,3.854,3.854,0,0,1,1.475,3.384,4.393,4.393,0,0,1-.644,2.527,4.922,4.922,0,0,1-2.1,1.592,2.625,2.625,0,0,1,1.17.748,3.325,3.325,0,0,1,.632,1.125,5.659,5.659,0,0,1,.27,1.334c.038.467.066.921.081,1.357q.024.96.082,1.592a9.964,9.964,0,0,0,.14,1.03,2.4,2.4,0,0,0,.2.62.946.946,0,0,0,.28.34v.14l-1.755.023a3.082,3.082,0,0,1-.363-1.17q-.1-.75-.163-1.568t-.094-1.592a9.181,9.181,0,0,0-.129-1.264,2.629,2.629,0,0,0-.457-1.089,2.071,2.071,0,0,0-.761-.62,3.257,3.257,0,0,0-.994-.281,8.916,8.916,0,0,0-1.135-.07Zm4.963-1.357a6.833,6.833,0,0,0,1.65-.188,3.689,3.689,0,0,0,1.322-.6,2.945,2.945,0,0,0,.89-1.042,3.271,3.271,0,0,0,.328-1.52,3.148,3.148,0,0,0-.34-1.546,2.574,2.574,0,0,0-.913-.959,3.832,3.832,0,0,0-1.31-.491,8.066,8.066,0,0,0-1.533-.141H95.453v6.484Z" fill="#e0d6c5"/>
        <path id="Trazado_264" data-name="Trazado 264" d="M117.386,332.222h1.662l5.08,14.981,5.056-14.981h1.661l-5.852,16.854h-1.755Z" fill="#e0d6c5"/>
        <rect id="Rect치ngulo_75" data-name="Rect치ngulo 75" width="1.592" height="16.854" transform="translate(143.087 332.222)" fill="#e0d6c5"/>
        <path id="Trazado_265" data-name="Trazado 265" d="M170.358,337.114a4.831,4.831,0,0,0-1.825-3.066,6.069,6.069,0,0,0-3.488-.913,5.128,5.128,0,0,0-4.436,2.247,7.188,7.188,0,0,0-1.053,2.377,11.546,11.546,0,0,0-.34,2.843,13.13,13.13,0,0,0,.292,2.762,7.356,7.356,0,0,0,.972,2.423,5.139,5.139,0,0,0,1.825,1.72,5.735,5.735,0,0,0,2.88.656,5.332,5.332,0,0,0,1.966-.351,4.9,4.9,0,0,0,1.556-.972,5.627,5.627,0,0,0,1.124-1.462,7.305,7.305,0,0,0,.69-1.85h1.662a10.485,10.485,0,0,1-.819,2.3,6.575,6.575,0,0,1-1.416,1.909,6.426,6.426,0,0,1-2.131,1.3,8.186,8.186,0,0,1-2.937.48,7.142,7.142,0,0,1-3.323-.714,6.311,6.311,0,0,1-2.259-1.931,8.087,8.087,0,0,1-1.276-2.82,14.068,14.068,0,0,1-.4-3.406,12.317,12.317,0,0,1,.6-4.1,7.287,7.287,0,0,1,1.649-2.749,6.23,6.23,0,0,1,2.481-1.545,9.723,9.723,0,0,1,3.114-.48,8.163,8.163,0,0,1,2.4.34,5.879,5.879,0,0,1,1.966,1.017,5.537,5.537,0,0,1,1.4,1.674,7.068,7.068,0,0,1,.76,2.305Z" fill="#e0d6c5"/>
        <path id="Trazado_266" data-name="Trazado 266" d="M184.66,349.076V332.222h11.212v1.359h-9.62v6.085h8.685v1.357h-8.685v6.7h9.855v1.357Z" fill="#e0d6c5"/>
        <path id="Trazado_267" data-name="Trazado 267" d="M222.649,349.076l6.624-16.854h1.8l6.461,16.854H235.9l-1.943-5.29h-7.677l-1.989,5.29Zm4.167-6.647h6.6l-3.3-8.848Z" fill="#e0d6c5"/>
        <path id="Trazado_268" data-name="Trazado 268" d="M247.648,332.222h12.265v1.358h-5.335v15.5h-1.592v-15.5h-5.338Z" fill="#e0d6c5"/>
        <path id="Trazado_269" data-name="Trazado 269" d="M286.763,340.672a11.524,11.524,0,0,1,.5-3.463,8.336,8.336,0,0,1,1.486-2.822,7.069,7.069,0,0,1,2.434-1.907,7.6,7.6,0,0,1,3.347-.7,8.112,8.112,0,0,1,3.454.691,6.984,6.984,0,0,1,2.481,1.9,8.229,8.229,0,0,1,1.5,2.832,11.751,11.751,0,0,1,.5,3.476,11.439,11.439,0,0,1-.5,3.43,8.394,8.394,0,0,1-1.486,2.809,7,7,0,0,1-2.459,1.907,8.67,8.67,0,0,1-6.835,0,7,7,0,0,1-2.457-1.907,8.231,8.231,0,0,1-1.475-2.809,11.632,11.632,0,0,1-.491-3.43m7.865,7.491a6,6,0,0,0,2.82-.62,5.638,5.638,0,0,0,1.943-1.651,7,7,0,0,0,1.123-2.387,10.924,10.924,0,0,0,.363-2.833,10.588,10.588,0,0,0-.433-3.148,6.822,6.822,0,0,0-1.252-2.376,5.378,5.378,0,0,0-1.989-1.5,6.418,6.418,0,0,0-2.622-.516,5.842,5.842,0,0,0-2.8.632,5.669,5.669,0,0,0-1.943,1.673,7.168,7.168,0,0,0-1.124,2.4,11.349,11.349,0,0,0,0,5.687,7.012,7.012,0,0,0,1.124,2.388,5.493,5.493,0,0,0,1.943,1.638,6.125,6.125,0,0,0,2.844.609" fill="#e0d6c5"/>
        <path id="Trazado_270" data-name="Trazado 270" d="M315.015,332.222h1.59v10.042a6.973,6.973,0,0,0,1.171,4.518,4.684,4.684,0,0,0,3.769,1.381,6.468,6.468,0,0,0,2.3-.363,3.511,3.511,0,0,0,1.533-1.1,4.606,4.606,0,0,0,.843-1.837,11.452,11.452,0,0,0,.258-2.6V332.222h1.592v10.51a7.127,7.127,0,0,1-1.627,5.044,6.4,6.4,0,0,1-4.9,1.744,6.316,6.316,0,0,1-4.915-1.778,7.183,7.183,0,0,1-1.615-5.01Z" fill="#e0d6c5"/>
        <path id="Trazado_271" data-name="Trazado 271" d="M342.823,341.422v7.654l-1.592-.023v-16.83h6.6a7.349,7.349,0,0,1,4.26,1.041,3.854,3.854,0,0,1,1.475,3.384,4.4,4.4,0,0,1-.644,2.527,4.916,4.916,0,0,1-2.1,1.592,2.631,2.631,0,0,1,1.17.748,3.379,3.379,0,0,1,.633,1.125,5.658,5.658,0,0,1,.268,1.334c.039.467.067.921.083,1.357q.023.96.082,1.592a9.2,9.2,0,0,0,.14,1.03,2.4,2.4,0,0,0,.2.62.938.938,0,0,0,.281.34v.14l-1.757.023a3.1,3.1,0,0,1-.362-1.17q-.105-.75-.163-1.568t-.093-1.592a9.5,9.5,0,0,0-.129-1.264,2.656,2.656,0,0,0-.458-1.089,2.063,2.063,0,0,0-.761-.62,3.257,3.257,0,0,0-.994-.281,8.939,8.939,0,0,0-1.135-.07Zm4.962-1.357a6.847,6.847,0,0,0,1.651-.188,3.713,3.713,0,0,0,1.322-.6,2.963,2.963,0,0,0,.889-1.042,3.271,3.271,0,0,0,.328-1.52,3.137,3.137,0,0,0-.34-1.546,2.566,2.566,0,0,0-.913-.959,3.837,3.837,0,0,0-1.311-.491,8.059,8.059,0,0,0-1.533-.141h-5.055v6.484Z" fill="#e0d6c5"/>
        <path id="Trazado_272" data-name="Trazado 272" d="M394.061,337.114a4.831,4.831,0,0,0-1.825-3.066,6.069,6.069,0,0,0-3.488-.913,5.127,5.127,0,0,0-4.436,2.247,7.187,7.187,0,0,0-1.053,2.377,11.547,11.547,0,0,0-.34,2.843,13.13,13.13,0,0,0,.292,2.762,7.356,7.356,0,0,0,.972,2.423,5.139,5.139,0,0,0,1.825,1.72,5.735,5.735,0,0,0,2.88.656,5.332,5.332,0,0,0,1.966-.351,4.905,4.905,0,0,0,1.556-.972,5.627,5.627,0,0,0,1.124-1.462,7.306,7.306,0,0,0,.69-1.85h1.662a10.485,10.485,0,0,1-.819,2.3,6.575,6.575,0,0,1-1.416,1.909,6.426,6.426,0,0,1-2.131,1.3,8.186,8.186,0,0,1-2.937.48,7.142,7.142,0,0,1-3.323-.714A6.311,6.311,0,0,1,383,346.875a8.087,8.087,0,0,1-1.276-2.82,14.069,14.069,0,0,1-.4-3.406,12.317,12.317,0,0,1,.6-4.1,7.288,7.288,0,0,1,1.649-2.749,6.23,6.23,0,0,1,2.481-1.545,9.723,9.723,0,0,1,3.114-.48,8.163,8.163,0,0,1,2.4.34,5.88,5.88,0,0,1,1.966,1.017,5.537,5.537,0,0,1,1.4,1.674,7.068,7.068,0,0,1,.76,2.305Z" fill="#e0d6c5"/>
        <path id="Trazado_273" data-name="Trazado 273" d="M407.708,340.672a11.524,11.524,0,0,1,.5-3.463,8.336,8.336,0,0,1,1.486-2.822,7.07,7.07,0,0,1,2.434-1.907,7.6,7.6,0,0,1,3.347-.7,8.112,8.112,0,0,1,3.454.691,6.984,6.984,0,0,1,2.481,1.9,8.229,8.229,0,0,1,1.5,2.832,11.751,11.751,0,0,1,.5,3.476,11.439,11.439,0,0,1-.5,3.43,8.394,8.394,0,0,1-1.486,2.809,7.014,7.014,0,0,1-2.459,1.907,8.67,8.67,0,0,1-6.835,0,6.989,6.989,0,0,1-2.457-1.907A8.231,8.231,0,0,1,408.2,344.1a11.632,11.632,0,0,1-.491-3.43m7.865,7.491a6,6,0,0,0,2.82-.62,5.638,5.638,0,0,0,1.943-1.651,7,7,0,0,0,1.123-2.387,10.925,10.925,0,0,0,.363-2.833,10.588,10.588,0,0,0-.433-3.148,6.822,6.822,0,0,0-1.252-2.376,5.378,5.378,0,0,0-1.989-1.5,6.418,6.418,0,0,0-2.622-.516,5.842,5.842,0,0,0-2.8.632,5.669,5.669,0,0,0-1.943,1.673,7.168,7.168,0,0,0-1.124,2.4,11.349,11.349,0,0,0,0,5.687,7.012,7.012,0,0,0,1.124,2.388,5.493,5.493,0,0,0,1.943,1.638,6.125,6.125,0,0,0,2.844.609" fill="#e0d6c5"/>
        <path id="Trazado_274" data-name="Trazado 274" d="M437.507,341.422v7.654l-1.592-.023v-16.83h6.6a7.349,7.349,0,0,1,4.26,1.041,3.854,3.854,0,0,1,1.475,3.384,4.4,4.4,0,0,1-.644,2.527,4.918,4.918,0,0,1-2.094,1.592,2.633,2.633,0,0,1,1.169.748,3.379,3.379,0,0,1,.633,1.125,5.658,5.658,0,0,1,.268,1.334c.039.467.067.921.083,1.357q.023.96.082,1.592a9.206,9.206,0,0,0,.14,1.03,2.4,2.4,0,0,0,.2.62.938.938,0,0,0,.281.34v.14l-1.757.023a3.1,3.1,0,0,1-.362-1.17q-.105-.75-.163-1.568t-.093-1.592a9.514,9.514,0,0,0-.129-1.264,2.657,2.657,0,0,0-.458-1.089,2.068,2.068,0,0,0-.76-.62,3.271,3.271,0,0,0-.995-.281,8.939,8.939,0,0,0-1.135-.07Zm4.962-1.357a6.847,6.847,0,0,0,1.651-.188,3.712,3.712,0,0,0,1.322-.6,2.962,2.962,0,0,0,.889-1.042,3.271,3.271,0,0,0,.328-1.52,3.137,3.137,0,0,0-.34-1.546,2.566,2.566,0,0,0-.913-.959,3.837,3.837,0,0,0-1.311-.491,8.058,8.058,0,0,0-1.533-.141h-5.055v6.484Z" fill="#e0d6c5"/>
        <path id="Trazado_275" data-name="Trazado 275" d="M460.913,349.076V332.222h11.212v1.359H462.5v6.085h8.685v1.357H462.5v6.7h9.855v1.357Z" fill="#e0d6c5"/>
      </g>
    </g>
  </g>
</svg>
