<svg id="Grupo_2" data-name="Grupo 2" xmlns="http://www.w3.org/2000/svg" xmlns:xlink="http://www.w3.org/1999/xlink" width="188.528" height="47.499" viewBox="0 0 188.528 47.499">
  <defs>
    <clipPath id="clip-path">
      <rect id="Rectángulo_2" data-name="Rectángulo 2" width="188.528" height="47.499" fill="#051028"/>
    </clipPath>
  </defs>
  <g id="Grupo_1" data-name="Grupo 1" clip-path="url(#clip-path)">
    <path id="Trazado_1" data-name="Trazado 1" d="M47.589,52.072,38.4,57.5a1.187,1.187,0,0,1-1.2,0l-8.77-5.128a1.187,1.187,0,0,1-.588-1.025V36.906a1.186,1.186,0,0,1,.588-1.025l8.77-5.129a1.187,1.187,0,0,1,1.2,0l9.133,5.391a.449.449,0,0,0,.455,0l2.347-1.376a.449.449,0,0,0,0-.775l-11.7-6.862a1.635,1.635,0,0,0-1.66,0L25.058,34.2a1.635,1.635,0,0,0-.8,1.406V52.648a1.635,1.635,0,0,0,.8,1.406l11.916,7.057a1.635,1.635,0,0,0,1.66,0l11.86-6.951a.345.345,0,0,0,0-.595l-2.556-1.5a.344.344,0,0,0-.349,0" transform="translate(-18.366 -20.376)" fill="#051028"/>
    <path id="Trazado_2" data-name="Trazado 2" d="M34.558,35.1,20.3,43.663a1.153,1.153,0,0,1-1.188,0L4.144,34.644a1.152,1.152,0,0,1-.557-.987V13.576a1.152,1.152,0,0,1,.561-.989L18.8,3.839a1.152,1.152,0,0,1,1.176,0l14.7,8.674a.454.454,0,0,0,.46,0l2.338-1.37a.454.454,0,0,0,0-.783L20.22.226a1.636,1.636,0,0,0-1.666.005L.8,10.811A1.636,1.636,0,0,0,0,12.217v22.72a1.636,1.636,0,0,0,.789,1.4L18.862,47.264a1.636,1.636,0,0,0,1.684.006l16.9-10.064a.387.387,0,0,0,0-.666L34.951,35.1a.387.387,0,0,0-.393,0" transform="translate(0 -0.001)" fill="#051028"/>
    <path id="Trazado_3" data-name="Trazado 3" d="M49.76,79.27l2.121,1.244a.321.321,0,0,0,.484-.277V64.6a.321.321,0,0,0-.484-.277L49.76,65.563a.9.9,0,0,0-.446.778v12.15a.9.9,0,0,0,.446.778" transform="translate(-37.339 -48.667)" fill="#051028"/>
    <path id="Trazado_4" data-name="Trazado 4" d="M179.953,81.995a7.069,7.069,0,0,1-6.669-4.429,7.4,7.4,0,0,1-.55-2.851v-.041a7.445,7.445,0,0,1,.54-2.841,7.12,7.12,0,0,1,3.828-3.9,7.366,7.366,0,0,1,2.952-.576,8.959,8.959,0,0,1,1.77.162,7.2,7.2,0,0,1,1.466.455,6.91,6.91,0,0,1,1.234.7,9.76,9.76,0,0,1,1.071.89L184,71.4a7.968,7.968,0,0,0-1.8-1.274,4.685,4.685,0,0,0-2.164-.486,4.432,4.432,0,0,0-1.87.395,4.638,4.638,0,0,0-1.486,1.071,4.82,4.82,0,0,0-.971,1.588,5.446,5.446,0,0,0-.344,1.941v.04a5.529,5.529,0,0,0,.344,1.952,4.9,4.9,0,0,0,.971,1.607,4.557,4.557,0,0,0,1.486,1.082,4.432,4.432,0,0,0,1.87.394,4.669,4.669,0,0,0,2.225-.5,8.749,8.749,0,0,0,1.84-1.345l1.6,1.618a9.081,9.081,0,0,1-1.143,1.041,7.515,7.515,0,0,1-1.284.789,6.48,6.48,0,0,1-1.507.505,8.822,8.822,0,0,1-1.81.172" transform="translate(-130.788 -50.999)" fill="#051028"/>
    <path id="Trazado_5" data-name="Trazado 5" d="M238.851,92.9a5.793,5.793,0,0,1-2.254-.435,5.6,5.6,0,0,1-1.8-1.183,5.354,5.354,0,0,1-1.183-1.759,5.478,5.478,0,0,1-.424-2.143V87.34a5.417,5.417,0,0,1,.435-2.164,5.571,5.571,0,0,1,2.993-2.973,5.738,5.738,0,0,1,2.275-.445,5.853,5.853,0,0,1,2.275.435,5.476,5.476,0,0,1,2.983,2.952,5.457,5.457,0,0,1,.424,2.154v.04a5.371,5.371,0,0,1-.435,2.144,5.546,5.546,0,0,1-3,2.972,5.8,5.8,0,0,1-2.285.445m.04-2.123a3.161,3.161,0,0,0,1.337-.273,3.1,3.1,0,0,0,1.015-.738,3.193,3.193,0,0,0,.643-1.082,3.847,3.847,0,0,0,.221-1.3V87.34a3.693,3.693,0,0,0-.241-1.334,3.357,3.357,0,0,0-.674-1.092,3.214,3.214,0,0,0-1.025-.738,3.308,3.308,0,0,0-2.633,0,3.174,3.174,0,0,0-1.015.728,3.075,3.075,0,0,0-.643,1.082,3.925,3.925,0,0,0-.221,1.314v.04a3.6,3.6,0,0,0,.241,1.324,3.493,3.493,0,0,0,.673,1.092,3.154,3.154,0,0,0,1.025.749,3.063,3.063,0,0,0,1.3.273" transform="translate(-176.563 -61.905)" fill="#051028"/>
    <path id="Trazado_6" data-name="Trazado 6" d="M290.313,82.031h2.467v2.406a4.7,4.7,0,0,1,1.435-1.941,3.441,3.441,0,0,1,2.346-.667v2.588h-.141a4,4,0,0,0-1.476.263,3.1,3.1,0,0,0-1.153.788,3.566,3.566,0,0,0-.748,1.325,5.915,5.915,0,0,0-.263,1.85v4.064h-2.467Z" transform="translate(-219.815 -61.954)" fill="#051028"/>
    <path id="Trazado_7" data-name="Trazado 7" d="M327.771,92.9a5.7,5.7,0,0,1-2.153-.4,5.167,5.167,0,0,1-2.9-2.881,5.815,5.815,0,0,1-.424-2.255V87.32a6.036,6.036,0,0,1,.384-2.164,5.44,5.44,0,0,1,1.082-1.769,5.1,5.1,0,0,1,1.648-1.193,5,5,0,0,1,2.1-.435,5.073,5.073,0,0,1,2.234.465,4.6,4.6,0,0,1,1.6,1.254,5.457,5.457,0,0,1,.961,1.83,7.369,7.369,0,0,1,.323,2.194c0,.108,0,.22-.01.334s-.017.233-.03.354h-7.846a3.116,3.116,0,0,0,1.041,2.012,3.073,3.073,0,0,0,2.033.7,3.576,3.576,0,0,0,1.577-.323,5.114,5.114,0,0,0,1.314-.95l1.436,1.274a5.905,5.905,0,0,1-1.83,1.456,5.488,5.488,0,0,1-2.538.546m2.427-6.329a4.187,4.187,0,0,0-.263-1.1,2.826,2.826,0,0,0-.546-.89,2.59,2.59,0,0,0-.819-.6,2.522,2.522,0,0,0-1.082-.223,2.467,2.467,0,0,0-1.87.778,3.515,3.515,0,0,0-.9,2.033Z" transform="translate(-244.028 -61.905)" fill="#051028"/>
    <path id="Trazado_8" data-name="Trazado 8" d="M380.8,81.995a7.069,7.069,0,0,1-6.669-4.429,7.4,7.4,0,0,1-.55-2.851v-.041a7.446,7.446,0,0,1,.54-2.841,7.12,7.12,0,0,1,3.828-3.9,7.366,7.366,0,0,1,2.952-.576,8.96,8.96,0,0,1,1.77.162,7.2,7.2,0,0,1,1.466.455,6.909,6.909,0,0,1,1.234.7,9.755,9.755,0,0,1,1.071.89l-1.6,1.84a7.967,7.967,0,0,0-1.8-1.274,4.685,4.685,0,0,0-2.164-.486,4.432,4.432,0,0,0-1.87.395,4.637,4.637,0,0,0-1.486,1.071,4.821,4.821,0,0,0-.971,1.588,5.446,5.446,0,0,0-.344,1.941v.04a5.529,5.529,0,0,0,.344,1.952,4.9,4.9,0,0,0,.971,1.607,4.556,4.556,0,0,0,1.486,1.082,4.431,4.431,0,0,0,1.87.394,4.669,4.669,0,0,0,2.225-.5,8.751,8.751,0,0,0,1.84-1.345l1.6,1.618a9.085,9.085,0,0,1-1.143,1.041,7.515,7.515,0,0,1-1.284.789,6.48,6.48,0,0,1-1.507.505,8.821,8.821,0,0,1-1.81.172" transform="translate(-282.866 -50.999)" fill="#051028"/>
    <path id="Trazado_9" data-name="Trazado 9" d="M440.717,92.849V91.535a4.576,4.576,0,0,1-1.4,1.092,4.4,4.4,0,0,1-2.062.444,4.913,4.913,0,0,1-1.456-.212,3.581,3.581,0,0,1-1.2-.627,3.046,3.046,0,0,1-1.143-2.457v-.04a3.462,3.462,0,0,1,.323-1.547,3.013,3.013,0,0,1,.9-1.092,3.929,3.929,0,0,1,1.375-.647,6.7,6.7,0,0,1,1.729-.212,9.532,9.532,0,0,1,1.648.121,10.015,10.015,0,0,1,1.3.323v-.2a2.125,2.125,0,0,0-.677-1.7,2.9,2.9,0,0,0-1.951-.586,6.521,6.521,0,0,0-1.617.182,10.564,10.564,0,0,0-1.436.486l-.667-1.962a11.293,11.293,0,0,1,1.82-.647,9.014,9.014,0,0,1,2.245-.242,4.744,4.744,0,0,1,3.539,1.183,4.568,4.568,0,0,1,1.152,3.327v6.329Zm.06-4.469a6.293,6.293,0,0,0-1.1-.3,7.177,7.177,0,0,0-1.344-.121,3.147,3.147,0,0,0-1.8.445,1.4,1.4,0,0,0-.647,1.213v.041a1.328,1.328,0,0,0,.6,1.173,2.549,2.549,0,0,0,1.466.4,3.726,3.726,0,0,0,1.122-.162,2.9,2.9,0,0,0,.9-.455,2.074,2.074,0,0,0,.6-.708,1.992,1.992,0,0,0,.212-.92Z" transform="translate(-328.2 -62.096)" fill="#051028"/>
    <path id="Trazado_10" data-name="Trazado 10" d="M491.413,80.839a3.913,3.913,0,0,1-2.179-.566,5.611,5.611,0,0,1-1.432-1.314v1.658h-2.467V65.855H487.8l-.02,5.864a5.331,5.331,0,0,1,1.456-1.425,3.834,3.834,0,0,1,2.164-.576,4.816,4.816,0,0,1,1.84.364,4.725,4.725,0,0,1,1.587,1.072,5.342,5.342,0,0,1,1.122,1.739,6.17,6.17,0,0,1,.425,2.366v.04a6.326,6.326,0,0,1-.413,2.366,5.21,5.21,0,0,1-1.11,1.739,4.684,4.684,0,0,1-1.594,1.072,4.869,4.869,0,0,1-1.846.364m-.558-2.123a2.928,2.928,0,0,0,1.183-.243,2.963,2.963,0,0,0,.971-.678,3.158,3.158,0,0,0,.657-1.071,3.975,3.975,0,0,0,.243-1.426v-.04a3.915,3.915,0,0,0-.243-1.406,3.279,3.279,0,0,0-.657-1.082,2.915,2.915,0,0,0-2.153-.93,3,3,0,0,0-1.193.243,2.913,2.913,0,0,0-.991.7,3.468,3.468,0,0,0-.677,1.082,3.7,3.7,0,0,0-.253,1.4v.04a3.777,3.777,0,0,0,.253,1.406,3.313,3.313,0,0,0,.677,1.082,3.006,3.006,0,0,0,2.184.93" transform="translate(-367.479 -49.863)" fill="#051028"/>
    <path id="Trazado_11" data-name="Trazado 11" d="M541.294,66.354h2.649V68.68h-2.649Zm.1,3.964h2.467V80.994H541.4Z" transform="translate(-409.85 -50.241)" fill="#051028"/>
    <path id="Trazado_12" data-name="Trazado 12" d="M564.942,81.982h2.467v1.675a5.969,5.969,0,0,1,.575-.724,3.75,3.75,0,0,1,.726-.6,3.706,3.706,0,0,1,.907-.418,3.766,3.766,0,0,1,1.119-.153,3.553,3.553,0,0,1,2.8,1.112,4.344,4.344,0,0,1,.988,2.993v6.794H572.06V86.606a2.836,2.836,0,0,0-.591-1.927A2.106,2.106,0,0,0,569.794,84a2.271,2.271,0,0,0-1.724.7,2.712,2.712,0,0,0-.662,1.947v6.012h-2.467Z" transform="translate(-427.755 -61.905)" fill="#051028"/>
    <path id="Trazado_13" data-name="Trazado 13" d="M619.637,92.9a5.7,5.7,0,0,1-2.154-.4,5.167,5.167,0,0,1-2.9-2.881,5.816,5.816,0,0,1-.424-2.255V87.32a6.035,6.035,0,0,1,.384-2.164,5.439,5.439,0,0,1,1.082-1.769,5.1,5.1,0,0,1,1.648-1.193,5,5,0,0,1,2.1-.435,5.074,5.074,0,0,1,2.234.465,4.6,4.6,0,0,1,1.6,1.254,5.457,5.457,0,0,1,.961,1.83,7.372,7.372,0,0,1,.323,2.194c0,.108,0,.22-.01.334s-.017.233-.03.354H616.6a3.116,3.116,0,0,0,1.041,2.012,3.073,3.073,0,0,0,2.033.7,3.576,3.576,0,0,0,1.577-.323,5.115,5.115,0,0,0,1.314-.95L624,90.9a5.9,5.9,0,0,1-1.83,1.456,5.488,5.488,0,0,1-2.538.546m2.426-6.329a4.188,4.188,0,0,0-.263-1.1,2.824,2.824,0,0,0-.546-.89,2.589,2.589,0,0,0-.819-.6,2.522,2.522,0,0,0-1.082-.223,2.467,2.467,0,0,0-1.87.778,3.514,3.514,0,0,0-.9,2.033Z" transform="translate(-465.019 -61.905)" fill="#051028"/>
    <path id="Trazado_14" data-name="Trazado 14" d="M667.819,84.393a4.54,4.54,0,0,1-1.239-.162,2.531,2.531,0,0,1-.989-.526,2.326,2.326,0,0,1-.642-.961,4.252,4.252,0,0,1-.224-1.486V75.637H663.37v-2.1h1.355V70.6h2.467v2.932h2.871v2.1h-2.871v5.237a1.324,1.324,0,0,0,.344,1.021,1.389,1.389,0,0,0,.971.313,3.352,3.352,0,0,0,1.517-.364v2a4.244,4.244,0,0,1-.991.4,4.716,4.716,0,0,1-1.213.141" transform="translate(-502.281 -53.457)" fill="#051028"/>
    <path id="Trazado_15" data-name="Trazado 15" d="M701.007,82.031h2.467v2.406a4.7,4.7,0,0,1,1.435-1.941,3.442,3.442,0,0,1,2.346-.667v2.588h-.141a4,4,0,0,0-1.476.263,3.1,3.1,0,0,0-1.153.788,3.57,3.57,0,0,0-.748,1.325,5.923,5.923,0,0,0-.263,1.85v4.064h-2.467Z" transform="translate(-530.779 -61.954)" fill="#051028"/>
    <path id="Trazado_16" data-name="Trazado 16" d="M734.428,96.649a4.932,4.932,0,0,1-1.365-.172A5.95,5.95,0,0,1,731.9,96l.829-1.82a4.158,4.158,0,0,0,.7.293,2.447,2.447,0,0,0,.738.111,1.391,1.391,0,0,0,.87-.263,2.415,2.415,0,0,0,.647-.971l-4.449-10.677h2.609l3.033,7.927,2.77-7.927h2.548l-4.246,10.98a9.067,9.067,0,0,1-.668,1.395,3.654,3.654,0,0,1-.768.92,2.763,2.763,0,0,1-.93.516,3.789,3.789,0,0,1-1.153.162" transform="translate(-553.665 -62.599)" fill="#051028"/>
  </g>
</svg>
